<svg fill="#000000" width="32px" height="32px" viewBox="0 0 20.48 20.48" data-name="Layer 1" id="Layer_1" xmlns="http://www.w3.org/2000/svg">
    <title/>
    <path d="M18.834 6.76a0.228 0.228 0 0 0 -0.24 -0.152 0.24 0.24 0 0 0 -0.215 0.184c-0.219 0.952 -1.096 1.548 -1.579 1.81 0.065 -4.078 -2.05 -5.91 -2.156 -5.998a0.24 0.24 0 0 0 -0.388 0.146c-0.28 1.8 -1.162 2.863 -1.607 3.298C11.735 2.896 9.395 0.795 9.36 0.765a0.24 0.24 0 0 0 -0.396 0.189c0 0.032 0.063 3.194 -5.229 6.84 -1.566 1.08 -2.499 2.444 -2.772 4.056 -0.48 2.84 1.223 5.497 1.579 6.014 -0.198 0.96 -0.187 1.614 -0.185 1.68a0.24 0.24 0 0 0 0.24 0.231h0.007a0.24 0.24 0 0 0 0.231 -0.246c0 -0.015 -0.01 -0.603 0.169 -1.495 0.153 -0.014 0.304 -0.032 0.455 -0.05 0.286 0.056 0.576 0.09 0.866 0.127 0.003 0 0.004 0.004 0.008 0.005 0.043 0.018 2.747 1.135 6.038 1.135 1.956 0 4.12 -0.395 6.053 -1.65 5.228 -3.392 2.44 -10.768 2.411 -10.841M14.642 3.286c0.696 0.812 2.288 3.22 1.447 7.541 -0.4 2.061 -1.585 3.803 -3.424 5.04 -2.074 1.393 -4.899 2.048 -7.648 1.84 3.051 -0.724 5.435 -2.403 6.796 -4.788 0.002 -0.002 0.006 -0.003 0.008 -0.006 0.128 -0.139 3.15 -3.434 3.275 -6.054a0.24 0.24 0 0 0 -0.227 -0.25 0.245 0.245 0 0 0 -0.25 0.227c-0.07 1.477 -1.192 3.252 -2.076 4.437 0.054 -0.16 0.112 -0.32 0.158 -0.487 0.423 -1.516 0.376 -2.938 0.084 -4.21 0.352 -0.297 1.426 -1.329 1.857 -3.291m-4.793 2.656c-0.01 -0.131 -0.111 -0.223 -0.257 -0.218a0.24 0.24 0 0 0 -0.219 0.257c0.106 1.328 -0.086 2.901 -3.617 6.213 -1.822 1.71 -2.666 3.592 -3.059 5.026 -0.548 -0.914 -1.64 -3.08 -1.264 -5.291 0.251 -1.48 1.117 -2.736 2.572 -3.74 4.303 -2.966 5.204 -5.621 5.389 -6.72 1.061 1.102 4.089 4.737 2.847 9.19 -1.545 5.533 -7.014 6.66 -9.128 6.888a10.306 10.306 0 0 1 2.969 -5.004c3.326 -3.12 3.906 -4.838 3.766 -6.6M16.163 17.2c-3.43 2.225 -7.637 1.62 -9.939 1.021 2.446 -0.04 4.861 -0.72 6.708 -1.96 0.147 -0.099 0.282 -0.207 0.422 -0.312 0.006 -0.002 0.012 0 0.017 -0.004 0.164 -0.093 4.028 -2.32 4.831 -5.496a0.24 0.24 0 0 0 -0.462 -0.117c-0.357 1.412 -1.402 2.645 -2.407 3.558a8.052 8.052 0 0 0 1.224 -2.972 13.52 13.52 0 0 0 0.224 -1.77c0.338 -0.154 1.304 -0.658 1.811 -1.589C19.116 9.36 20.2 14.582 16.163 17.2"/>
</svg>
