<svg width="24" height="24" viewBox="-0.06 -0.06 0.72 0.72" xmlns="http://www.w3.org/2000/svg" preserveAspectRatio="xMinYMin" class="jam jam-task-list"><path d="M.18 0h.24A.18.18 0 0 1 .6.18v.24A.18.18 0 0 1 .42.6H.18A.18.18 0 0 1 0 .42V.18A.18.18 0 0 1 .18 0m0 .06a.12.12 0 0 0-.12.12v.24a.12.12 0 0 0 .12.12h.24A.12.12 0 0 0 .54.42V.18A.12.12 0 0 0 .42.06zm.18.21h.09a.03.03 0 0 1 0 .06H.36a.03.03 0 0 1 0-.06M.3.39h.15a.03.03 0 0 1 0 .06H.3a.03.03 0 0 1 0-.06m0-.24h.15a.03.03 0 0 1 0 .06H.3a.03.03 0 1 1 0-.06M.175.307.238.244A.03.03 0 1 1 .28.286L.195.371a.03.03 0 0 1-.042 0L.111.328A.03.03 0 0 1 .153.286z"/></svg>