<svg width="24" height="24" viewBox="0 0 0.45 0.45" fill="none" xmlns="http://www.w3.org/2000/svg"><path d="m.204.036.011.011zM.036.204.025.193zm0 .042L.047.235zm.168.168L.193.425zm.042 0L.235.403zM.414.246l.011.011zm0-.042L.403.215zM.246.036.257.025zM.193.026.026.193l.021.021.168-.168zM.026.257l.168.168.021-.021L.047.236zm.231.168L.425.257.404.236.236.404zM.425.194.257.026.236.047l.168.168zm0 .064a.045.045 0 0 0 0-.064L.404.215a.015.015 0 0 1 0 .021zM.193.424a.045.045 0 0 0 .064 0L.236.403a.015.015 0 0 1-.021 0zM.026.193a.045.045 0 0 0 0 .064L.047.236a.015.015 0 0 1 0-.021zM.215.047a.015.015 0 0 1 .021 0L.257.026a.045.045 0 0 0-.064 0zm-.06.039.03.03.021-.021-.03-.03zm.07.064A.015.015 0 0 1 .21.135H.18A.045.045 0 0 0 .225.18zM.24.135A.015.015 0 0 1 .225.15v.03A.045.045 0 0 0 .27.135zM.225.12A.015.015 0 0 1 .24.135h.03A.045.045 0 0 0 .225.09zm0-.03A.045.045 0 0 0 .18.135h.03A.015.015 0 0 1 .225.12zm.019.086.045.045L.31.2.265.155zM.315.24A.015.015 0 0 1 .3.225H.27A.045.045 0 0 0 .315.27zM.33.225A.015.015 0 0 1 .315.24v.03A.045.045 0 0 0 .36.225zM.315.21A.015.015 0 0 1 .33.225h.03A.045.045 0 0 0 .315.18zm0-.03A.045.045 0 0 0 .27.225H.3A.015.015 0 0 1 .315.21zM.21.165v.12h.03v-.12zM.225.33A.015.015 0 0 1 .21.315H.18A.045.045 0 0 0 .225.36zM.24.315A.015.015 0 0 1 .225.33v.03A.045.045 0 0 0 .27.315zM.225.3A.015.015 0 0 1 .24.315h.03A.045.045 0 0 0 .225.27zm0-.03A.045.045 0 0 0 .18.315h.03A.015.015 0 0 1 .225.3z" fill="#000"/></svg>