<svg xmlns="http://www.w3.org/2000/svg" viewBox="0 0 24 24" xml:space="preserve" width="24" height="24"><path style="fill:#b0b6bb" d="M14.444 19.034a.62.62 0 0 1-.582.414h-3.31a.62.62 0 0 1-.583-.414H.239a.24.24 0 0 0-.239.24v1.177a.24.24 0 0 0 .239.239h23.522a.24.24 0 0 0 .239-.239v-1.177a.24.24 0 0 0-.239-.239z"/><path style="fill:#e8edee" d="M9.969 19.034c.086.24.314.414.582.414h3.31a.62.62 0 0 0 .583-.414h8.728V4.552a1.24 1.24 0 0 0-1.241-1.241H2.069A1.24 1.24 0 0 0 .828 4.552v14.483z"/><path style="fill:#7383bf" d="M2.483 17.379h19.034V4.966H2.483z"/><path style="fill:#fff" d="M4.965 13.241a.414.414 0 0 1-.414-.414v-3.31a.414.414 0 0 1 .828 0v3.31a.414.414 0 0 1-.414.414m2.483 0a.414.414 0 0 1-.414-.414v-3.31a.414.414 0 0 1 .828 0v3.31a.414.414 0 0 1-.414.414m2.897 0a.414.414 0 0 1-.414-.414v-3.31a.414.414 0 0 1 .828 0v3.31a.414.414 0 0 1-.414.414"/><path style="fill:#fff" d="M7.448 11.586H4.965a.414.414 0 0 1 0-.828h2.483a.414.414 0 0 1 0 .828m4.138-1.655H9.103a.414.414 0 0 1 0-.828h2.483a.414.414 0 0 1 0 .828m2.897 3.31a.414.414 0 0 1-.414-.414v-3.31a.414.414 0 0 1 .828 0v3.31a.414.414 0 0 1-.414.414"/><path style="fill:#fff" d="M15.724 9.931h-2.483a.414.414 0 0 1 0-.828h2.483a.414.414 0 0 1 0 .828m2.069 1.034h.517a.518.518 0 0 0 0-1.034h-.517zm-.414 2.276a.414.414 0 0 1-.414-.414v-3.31c0-.228.185-.414.414-.414h.931a1.346 1.346 0 0 1 0 2.69h-.517v1.034a.414.414 0 0 1-.414.414"/></svg>