<svg height="24" width="24" xmlns="http://www.w3.org/2000/svg" viewBox="0 0 0.96 0.96" xml:space="preserve"><path d="M.9.09H.06Q.032.092.03.12C.028.148.042.15.06.15h.03v.48q.002.028.03.03h.294L.249.849C.237.861.24.879.252.891.255.897.264.9.27.9A.03.03 0 0 0 .294.891L.45.711V.84q.002.028.03.03C.508.872.51.858.51.84V.711l.156.18A.03.03 0 0 0 .69.9L.711.894C.723.882.726.864.714.852L.546.66H.84Q.868.658.87.63V.15H.9Q.928.148.93.12C.932.092.918.09.9.09M.744.258l-.12.18C.615.45.6.456.585.447L.474.39H.372L.261.501Q.253.51.24.51C.227.51.225.507.219.501a.03.03 0 0 1 0-.042l.12-.12A.03.03 0 0 1 .36.33h.12q.008 0 .012.003l.096.048.105-.159C.702.207.72.204.735.213c.015.012.018.03.009.045"/></svg>