<svg width="24" height="24" viewBox="0 0 0.72 0.72" xmlns="http://www.w3.org/2000/svg"><g fill="none"><path d="M.72 0v.72H0V0zM.378.698.376.699H.375L.373.698H.372L.371.711v.001l.003.002.003-.002V.711L.376.698.375.697M.383.694.377.697.378.71l.006.003h.001L.384.695zm-.021 0H.361L.36.712l.001.001L.367.71.368.697z"/><path d="M.57.09a.06.06 0 0 1 .06.06v.42a.06.06 0 0 1-.06.06H.15A.06.06 0 0 1 .09.57V.15A.06.06 0 0 1 .15.09zm0 .06H.15v.42h.42zM.361.232C.369.206.404.204.417.226l.002.003L.47.36h.04a.03.03 0 0 1 .004.06H.45A.03.03 0 0 1 .423.404L.421.401.392.329l-.05.159C.334.513.301.517.288.496L.286.493.251.42H.21A.03.03 0 0 1 .206.36H.27q.016 0 .025.013l.002.003.012.023z" fill="#09244B"/></g></svg>