<svg width="20" height="20" viewBox="0 0 0.6 0.6" xmlns="http://www.w3.org/2000/svg" data-name="Layer 1"><path d="m.518.232-.15-.15L.36.077.35.075h-.2A.075.075 0 0 0 .075.15v.3A.075.075 0 0 0 .15.525h.3A.075.075 0 0 0 .525.45v-.2A.03.03 0 0 0 .518.232M.225.125h.1v.05h-.1Zm.15.35h-.15V.4A.025.025 0 0 1 .25.375h.1A.025.025 0 0 1 .375.4Zm.1-.025A.025.025 0 0 1 .45.475H.425V.4A.075.075 0 0 0 .35.325h-.1A.075.075 0 0 0 .175.4v.075H.15A.025.025 0 0 1 .125.45v-.3A.025.025 0 0 1 .15.125h.025V.2A.025.025 0 0 0 .2.225h.15A.025.025 0 0 0 .375.2V.16l.1.1Z"/></svg>