<svg width="24" height="24" viewBox="0 0 30.72 30.72" xmlns="http://www.w3.org/2000/svg"><path d="m14.072 10.391 5.754-5.754a4.295 4.295 0 0 1 6.074 6.074l-5.998 5.998a4.295 4.295 0 0 1-7.216-2.04.615.615 0 0 0-1.196.284 5.524 5.524 0 0 0 9.28 2.625l5.998-5.998a5.524 5.524 0 0 0-7.812-7.812l-5.753 5.754a.614.614 0 1 0 .869.869"/><path d="m16.465 20.212-5.754 5.755a4.295 4.295 0 0 1-6.074-6.074l5.998-5.998a4.295 4.295 0 0 1 7.216 2.04.615.615 0 0 0 1.196-.284 5.524 5.524 0 0 0-9.28-2.625l-5.999 5.998a5.524 5.524 0 0 0 7.812 7.812l5.754-5.755a.614.614 0 1 0-.869-.869"/></svg>