<svg width="24" height="24" viewBox="0 0 0.96 0.96" xmlns="http://www.w3.org/2000/svg"><title>file_type_swagger</title><path d="M.9.48A.42.42 0 1 1 .777.183.42.42 0 0 1 .9.48" style="fill:#fff"/><path d="M.837.48A.357.357 0 1 1 .732.228.36.36 0 0 1 .837.48" style="fill:#6d9a00"/><path d="M.35.479A.03.03 0 0 1 .379.45.029.029 0 1 1 .35.479m.101 0A.03.03 0 0 1 .48.45a.029.029 0 1 1-.029.029m.101 0A.03.03 0 0 1 .581.45a.029.029 0 1 1-.029.029" style="fill:#fff"/><path d="M.229.507V.455L.255.45A.03.03 0 0 0 .268.437L.276.414.278.378A.3.3 0 0 1 .282.319.1.1 0 0 1 .295.292.05.05 0 0 1 .319.275.1.1 0 0 1 .358.271h.011v.043A.1.1 0 0 0 .34.317a.02.02 0 0 0-.01.008L.327.353.325.405A.1.1 0 0 1 .32.44L.309.462.289.48l.02.017.012.024.005.038.001.046.003.028a.02.02 0 0 0 .01.009.1.1 0 0 0 .029.003V.69H.358A.1.1 0 0 1 .319.684.1.1 0 0 1 .294.669.1.1 0 0 1 .28.642.3.3 0 0 1 .276.591.3.3 0 0 0 .273.539.05.05 0 0 0 .259.514.1.1 0 0 0 .227.507m.472.007a.05.05 0 0 0-.014.025.3.3 0 0 0-.003.052.3.3 0 0 1-.004.051.1.1 0 0 1-.014.027.1.1 0 0 1-.025.016A.1.1 0 0 1 .6.691H.589V.646A.1.1 0 0 0 .618.643a.02.02 0 0 0 .01-.009L.631.606.632.56.637.522.649.498l.02-.017-.02-.018L.638.441A.1.1 0 0 1 .633.406L.631.354.628.326a.02.02 0 0 0-.01-.008.1.1 0 0 0-.029-.003V.27H.6a.1.1 0 0 1 .039.004.05.05 0 0 1 .024.017.1.1 0 0 1 .013.027.3.3 0 0 1 .004.059l.002.036.008.023a.03.03 0 0 0 .013.013l.026.004v.052a.1.1 0 0 0-.032.008" style="fill:#fff"/></svg>