<svg width="24" height="24" viewBox="-96 -96 960 960" xmlns="http://www.w3.org/2000/svg" style="fill-rule:evenodd;clip-rule:evenodd;stroke-linejoin:round;stroke-miterlimit:2"><rect xmlns="http://www.w3.org/2000/svg" xmlns:ns1="http://www.serif.com/" id="Logo--Avatar-" ns1:id="Logo (Avatar)" x="0" y="0" width="768" height="768" style="fill:none;" /><rect xmlns="http://www.w3.org/2000/svg" id="Background" x="0" y="0" width="768" height="768" style="fill:#5849be;" /><circle xmlns="http://www.w3.org/2000/svg" id="White" cx="384" cy="384.002" r="317.136" style="fill:#fff;" /><path xmlns="http://www.w3.org/2000/svg" id="Pupil" d="M316.487,141.518c21.488,-5.978 44.13,-9.174 67.513,-9.174c138.893,0 251.656,112.763 251.656,251.656c0,138.893 -112.763,251.656 -251.656,251.656c-138.893,0 -251.656,-112.763 -251.656,-251.656c0,-23.38 3.195,-46.02 9.172,-67.506c22.702,32.968 60.708,54.597 103.725,54.597c69.459,0 125.85,-56.39 125.85,-125.847c0,-43.019 -21.633,-81.025 -54.604,-103.726Z" style="fill:#5849be;" /></svg>
