<svg width="24" height="24" viewBox="0 0 115 115" xmlns="http://www.w3.org/2000/svg"><path xmlns="http://www.w3.org/2000/svg" d="M88.9701 28.3455C88.8926 28.3833 88.8234 28.436 88.7663 28.5006C88.7093 28.5651 88.6656 28.6403 88.6377 28.7218C88.6099 28.8033 88.5984 28.8895 88.604 28.9754C88.6096 29.0614 88.6321 29.1453 88.6703 29.2225C88.8405 29.5623 88.908 29.9441 88.8646 30.3215C88.8212 30.6989 88.6688 31.0555 88.4259 31.3479C88.3213 31.4821 88.2732 31.6517 88.2917 31.8208C88.3103 31.9898 88.3941 32.145 88.5253 32.2534C88.6565 32.3618 88.8249 32.415 88.9947 32.4016C89.1645 32.3882 89.3224 32.3093 89.4349 32.1816C89.8396 31.6939 90.0937 31.0992 90.1661 30.4699C90.2385 29.8407 90.1261 29.204 89.8427 28.6373C89.7648 28.4839 89.6297 28.3673 89.4664 28.3127C89.3031 28.2581 89.1248 28.2698 88.9701 28.3455Z" fill="#FF6C37" />
<path xmlns="http://www.w3.org/2000/svg" d="M63.7963 0.464959C32.7976 -3.50292 4.4422 18.3631 0.466174 49.3173C-3.50985 80.2716 18.3868 108.569 49.3869 112.54C80.387 116.511 108.744 94.6449 112.717 63.6996C116.69 32.7543 94.7949 4.43883 63.7963 0.464959ZM75.4485 35.7104C74.3986 35.7252 73.396 36.1484 72.6539 36.8898L51.6553 57.8488L47.1785 53.3765C67.8652 32.7738 71.5954 32.5762 75.4485 35.7104ZM52.5099 58.5972L73.4485 37.6891C73.9963 37.1435 74.7384 36.8372 75.5122 36.8372C76.286 36.8372 77.0281 37.1435 77.5759 37.6891C77.8581 37.9709 78.0793 38.3075 78.226 38.6781C78.3727 39.0487 78.4417 39.4453 78.4288 39.8436C78.4159 40.2418 78.3213 40.6332 78.1509 40.9935C77.9805 41.3538 77.7378 41.6754 77.438 41.9384L55.2805 61.3677L52.5099 58.5972ZM54.0676 61.8601L48.8802 62.9767C48.8187 62.9899 48.7546 62.983 48.6975 62.9568C48.6403 62.9307 48.5932 62.8868 48.5632 62.8317C48.5331 62.7766 48.5218 62.7132 48.5308 62.6511C48.5398 62.589 48.5688 62.5315 48.6133 62.4872L51.6538 59.4503L54.0676 61.8601ZM40.8456 59.7003L46.3749 54.1803L50.5189 58.3173L41.1845 60.3229C41.1064 60.3394 41.0252 60.3302 40.9527 60.2968C40.8803 60.2635 40.8207 60.2077 40.7826 60.1377C40.7445 60.0677 40.7301 59.9874 40.7414 59.9086C40.7528 59.8297 40.7894 59.7567 40.8456 59.7003ZM23.6552 88.2328C23.5878 88.225 23.5241 88.1983 23.4713 88.1559C23.4185 88.1135 23.3788 88.0571 23.3567 87.9931C23.3346 87.9291 23.331 87.8602 23.3464 87.7943C23.3619 87.7284 23.3956 87.6682 23.4438 87.6206L27.9041 83.1663L33.6657 88.9183L23.6552 88.2328ZM35.093 82.3117C34.8805 82.4215 34.7107 82.5988 34.6103 82.8156C34.5099 83.0324 34.4845 83.2763 34.5383 83.5091L35.4948 87.5877C35.5192 87.7118 35.5037 87.8405 35.4504 87.9552C35.397 88.07 35.3087 88.1649 35.1979 88.2264C35.0872 88.2879 34.9598 88.3129 34.834 88.2976C34.7083 88.2823 34.5905 88.2277 34.4978 88.1415L28.7092 82.3626L46.4439 64.656L55.0286 62.815L59.1486 66.9281C53.225 72.1038 45.132 77.2796 35.093 82.3072V82.3117ZM59.9807 66.1722L56.0241 62.2238L78.1846 42.7915C78.3903 42.6113 78.5772 42.4107 78.7424 42.1928C78.0422 48.536 69.1726 57.4776 59.9866 66.1677L59.9807 66.1722ZM77.2221 35.7478C75.6684 34.1826 74.7776 32.0806 74.7341 29.8775C74.6907 27.6744 75.4981 25.5391 76.9889 23.9141C78.4798 22.2891 80.5397 21.2991 82.7419 21.1493C84.944 20.9995 87.1195 21.7013 88.8174 23.1093L81.2116 30.7038C81.1588 30.756 81.1169 30.8181 81.0883 30.8866C81.0597 30.955 81.0449 31.0285 81.0449 31.1027C81.0449 31.1768 81.0597 31.2503 81.0883 31.3188C81.1169 31.3872 81.1588 31.4493 81.2116 31.5015L87.0917 37.3733C85.4843 38.1653 83.6686 38.4341 81.9002 38.1417C80.1318 37.8493 78.4998 37.0104 77.2341 35.7433L77.2221 35.7478ZM89.3781 35.7478C88.9888 36.1348 88.5625 36.4827 88.1052 36.7866L82.408 31.0989L89.6389 23.8816C91.134 25.512 91.9411 27.6555 91.892 29.8653C91.8428 32.0752 90.9412 34.1808 89.3751 35.7433L89.3781 35.7478Z" fill="#FF6C37" />
</svg>
